<?xml version="1.0" encoding="UTF-8"?><svg xmlns="http://www.w3.org/2000/svg" xmlns:xlink="http://www.w3.org/1999/xlink" fill-opacity="1" color-rendering="auto" color-interpolation="auto" text-rendering="auto" stroke="black" stroke-linecap="square" width="659" stroke-miterlimit="10" shape-rendering="auto" stroke-opacity="1" fill="black" stroke-dasharray="none" font-weight="normal" stroke-width="1" height="847" font-family="'Dialog'" font-style="normal" stroke-linejoin="miter" font-size="12px" stroke-dashoffset="0" image-rendering="auto">
  <!--Generated by ySVG 2.5-->
  <defs id="genericDefs"/>
  <g>
    <defs id="defs1">
      <linearGradient x1="130" gradientUnits="userSpaceOnUse" x2="252" y1="95" y2="156" id="linearGradient1" spreadMethod="reflect">
        <stop stop-opacity="1" stop-color="rgb(232,238,247)" offset="0%"/>
        <stop stop-opacity="1" stop-color="rgb(183,201,227)" offset="100%"/>
      </linearGradient>
      <linearGradient x1="130" gradientUnits="userSpaceOnUse" x2="252" y1="186" y2="247" id="linearGradient2" spreadMethod="reflect">
        <stop stop-opacity="1" stop-color="rgb(232,238,247)" offset="0%"/>
        <stop stop-opacity="1" stop-color="rgb(183,201,227)" offset="100%"/>
      </linearGradient>
      <linearGradient x1="130" gradientUnits="userSpaceOnUse" x2="252" y1="287" y2="348" id="linearGradient3" spreadMethod="reflect">
        <stop stop-opacity="1" stop-color="rgb(232,238,247)" offset="0%"/>
        <stop stop-opacity="1" stop-color="rgb(183,201,227)" offset="100%"/>
      </linearGradient>
      <linearGradient x1="-99" gradientUnits="userSpaceOnUse" x2="23" y1="850.3346" y2="911.3346" id="linearGradient4" spreadMethod="reflect">
        <stop stop-opacity="1" stop-color="rgb(232,238,247)" offset="0%"/>
        <stop stop-opacity="1" stop-color="rgb(183,201,227)" offset="100%"/>
      </linearGradient>
      <linearGradient x1="130" gradientUnits="userSpaceOnUse" x2="252" y1="388" y2="449" id="linearGradient5" spreadMethod="reflect">
        <stop stop-opacity="1" stop-color="rgb(232,238,247)" offset="0%"/>
        <stop stop-opacity="1" stop-color="rgb(183,201,227)" offset="100%"/>
      </linearGradient>
      <linearGradient x1="130" gradientUnits="userSpaceOnUse" x2="252" y1="518.4048" y2="579.4048" id="linearGradient6" spreadMethod="reflect">
        <stop stop-opacity="1" stop-color="rgb(232,238,247)" offset="0%"/>
        <stop stop-opacity="1" stop-color="rgb(183,201,227)" offset="100%"/>
      </linearGradient>
      <linearGradient x1="343" gradientUnits="userSpaceOnUse" x2="465" y1="287" y2="348" id="linearGradient7" spreadMethod="reflect">
        <stop stop-opacity="1" stop-color="rgb(232,238,247)" offset="0%"/>
        <stop stop-opacity="1" stop-color="rgb(183,201,227)" offset="100%"/>
      </linearGradient>
      <linearGradient x1="-136.7186" gradientUnits="userSpaceOnUse" x2="39.7186" y1="393.8515" y2="443.1485" id="linearGradient8" spreadMethod="reflect">
        <stop stop-opacity="1" stop-color="rgb(232,238,247)" offset="0%"/>
        <stop stop-opacity="1" stop-color="rgb(183,201,227)" offset="100%"/>
      </linearGradient>
      <linearGradient x1="314.6571" gradientUnits="userSpaceOnUse" x2="491.0943" y1="644.7372" y2="694.0342" id="linearGradient9" spreadMethod="reflect">
        <stop stop-opacity="1" stop-color="rgb(232,238,247)" offset="0%"/>
        <stop stop-opacity="1" stop-color="rgb(183,201,227)" offset="100%"/>
      </linearGradient>
      <clipPath clipPathUnits="userSpaceOnUse" id="clipPath1">
        <path d="M0 0 L659 0 L659 847 L0 847 L0 0 Z"/>
      </clipPath>
      <clipPath clipPathUnits="userSpaceOnUse" id="clipPath2">
        <path d="M-152 80 L507 80 L507 927 L-152 927 L-152 80 Z"/>
      </clipPath>
    </defs>
    <g fill="white" text-rendering="geometricPrecision" shape-rendering="geometricPrecision" transform="translate(152,-80)" stroke="white">
      <rect x="-152" width="659" height="847" y="80" clip-path="url(#clipPath2)" stroke="none"/>
    </g>
    <g fill="url(#linearGradient1)" text-rendering="geometricPrecision" shape-rendering="geometricPrecision" transform="matrix(1,0,0,1,152,-80)" stroke="url(#linearGradient1)">
      <ellipse rx="61" ry="30.5" clip-path="url(#clipPath2)" cx="191" cy="125.5" stroke="none"/>
    </g>
    <g text-rendering="geometricPrecision" stroke-miterlimit="1.45" shape-rendering="geometricPrecision" transform="matrix(1,0,0,1,152,-80)" stroke-linecap="butt">
      <ellipse rx="61" fill="none" ry="30.5" clip-path="url(#clipPath2)" cx="191" cy="125.5"/>
      <text x="169.6104" xml:space="preserve" y="130.0352" clip-path="url(#clipPath2)" font-family="sans-serif" stroke="none">Начало</text>
    </g>
    <g fill="url(#linearGradient2)" text-rendering="geometricPrecision" shape-rendering="geometricPrecision" transform="matrix(1,0,0,1,152,-80)" stroke="url(#linearGradient2)">
      <path d="M130 186 L252 186 L252 247 L130 247 Z" stroke="none" clip-path="url(#clipPath2)"/>
    </g>
    <g text-rendering="geometricPrecision" stroke-miterlimit="1.45" shape-rendering="geometricPrecision" transform="matrix(1,0,0,1,152,-80)" stroke-linecap="butt">
      <path fill="none" d="M130 186 L252 186 L252 247 L130 247 Z" clip-path="url(#clipPath2)"/>
      <text x="173.4629" xml:space="preserve" y="213.9688" clip-path="url(#clipPath2)" font-family="sans-serif" stroke="none">адрес</text>
      <text x="176.8145" xml:space="preserve" y="228.1016" clip-path="url(#clipPath2)" font-family="sans-serif" stroke="none">порт</text>
    </g>
    <g fill="url(#linearGradient3)" text-rendering="geometricPrecision" shape-rendering="geometricPrecision" transform="matrix(1,0,0,1,152,-80)" stroke="url(#linearGradient3)">
      <path d="M191 287 L252 317.5 L191 348 L130 317.5 Z" stroke="none" clip-path="url(#clipPath2)"/>
    </g>
    <g text-rendering="geometricPrecision" stroke-miterlimit="1.45" shape-rendering="geometricPrecision" transform="matrix(1,0,0,1,152,-80)" stroke-linecap="butt">
      <path fill="none" d="M191 287 L252 317.5 L191 348 L130 317.5 Z" clip-path="url(#clipPath2)"/>
      <text x="147.8662" xml:space="preserve" y="322.0352" clip-path="url(#clipPath2)" font-family="sans-serif" stroke="none">подключение?</text>
    </g>
    <g fill="url(#linearGradient4)" text-rendering="geometricPrecision" shape-rendering="geometricPrecision" transform="matrix(1,0,0,1,152,-80)" stroke="url(#linearGradient4)">
      <path d="M-38 850.3346 L23 880.8346 L-38 911.3346 L-99 880.8346 Z" stroke="none" clip-path="url(#clipPath2)"/>
    </g>
    <g text-rendering="geometricPrecision" stroke-miterlimit="1.45" shape-rendering="geometricPrecision" transform="matrix(1,0,0,1,152,-80)" stroke-linecap="butt">
      <path fill="none" d="M-38 850.3346 L23 880.8346 L-38 911.3346 L-99 880.8346 Z" clip-path="url(#clipPath2)"/>
    </g>
    <g fill="url(#linearGradient5)" text-rendering="geometricPrecision" shape-rendering="geometricPrecision" transform="matrix(1,0,0,1,152,-80)" stroke="url(#linearGradient5)">
      <path d="M191 388 L252 418.5 L191 449 L130 418.5 Z" stroke="none" clip-path="url(#clipPath2)"/>
    </g>
    <g text-rendering="geometricPrecision" stroke-miterlimit="1.45" shape-rendering="geometricPrecision" transform="matrix(1,0,0,1,152,-80)" stroke-linecap="butt">
      <path fill="none" d="M191 388 L252 418.5 L191 449 L130 418.5 Z" clip-path="url(#clipPath2)"/>
      <text x="168.3418" xml:space="preserve" y="423.0352" clip-path="url(#clipPath2)" font-family="sans-serif" stroke="none">req_pq?</text>
    </g>
    <g fill="url(#linearGradient6)" text-rendering="geometricPrecision" shape-rendering="geometricPrecision" transform="matrix(1,0,0,1,152,-80)" stroke="url(#linearGradient6)">
      <path d="M191 518.4048 L252 548.9048 L191 579.4048 L130 548.9048 Z" stroke="none" clip-path="url(#clipPath2)"/>
    </g>
    <g text-rendering="geometricPrecision" stroke-miterlimit="1.45" shape-rendering="geometricPrecision" transform="matrix(1,0,0,1,152,-80)" stroke-linecap="butt">
      <path fill="none" d="M191 518.4048 L252 548.9048 L191 579.4048 L130 548.9048 Z" clip-path="url(#clipPath2)"/>
      <text x="142.4727" xml:space="preserve" y="553.44" clip-path="url(#clipPath2)" font-family="sans-serif" stroke="none">req_DH_params?</text>
    </g>
    <g fill="url(#linearGradient7)" text-rendering="geometricPrecision" shape-rendering="geometricPrecision" transform="matrix(1,0,0,1,152,-80)" stroke="url(#linearGradient7)">
      <path d="M343 287 L465 287 L465 348 L343 348 Z" stroke="none" clip-path="url(#clipPath2)"/>
    </g>
    <g text-rendering="geometricPrecision" stroke-miterlimit="1.45" shape-rendering="geometricPrecision" transform="matrix(1,0,0,1,152,-80)" stroke-linecap="butt">
      <path fill="none" d="M343 287 L465 287 L465 348 L343 348 Z" clip-path="url(#clipPath2)"/>
      <text x="342.2393" xml:space="preserve" y="322.0352" clip-path="url(#clipPath2)" font-family="sans-serif" stroke="none">Закрыть соединение</text>
    </g>
    <g fill="url(#linearGradient8)" text-rendering="geometricPrecision" shape-rendering="geometricPrecision" transform="matrix(1,0,0,1,152,-80)" stroke="url(#linearGradient8)">
      <path d="M-136.7186 393.8515 L39.7186 393.8515 L39.7186 443.1485 L-136.7186 443.1485 Z" stroke="none" clip-path="url(#clipPath2)"/>
    </g>
    <g text-rendering="geometricPrecision" stroke-miterlimit="1.45" shape-rendering="geometricPrecision" transform="matrix(1,0,0,1,152,-80)" stroke-linecap="butt">
      <path fill="none" d="M-136.7186 393.8515 L39.7186 393.8515 L39.7186 443.1485 L-136.7186 443.1485 Z" clip-path="url(#clipPath2)"/>
      <text x="-50.3984" xml:space="preserve" y="415.9688" clip-path="url(#clipPath2)" font-family="sans-serif" stroke="none"> </text>
      <text x="-130.6777" xml:space="preserve" y="430.1016" clip-path="url(#clipPath2)" font-family="sans-serif" stroke="none">изменить состояние сессии</text>
    </g>
    <g fill="url(#linearGradient9)" text-rendering="geometricPrecision" shape-rendering="geometricPrecision" transform="matrix(1,0,0,1,152,-80)" stroke="url(#linearGradient9)">
      <path d="M314.6571 644.7372 L491.0943 644.7372 L491.0943 694.0342 L314.6571 694.0342 Z" stroke="none" clip-path="url(#clipPath2)"/>
    </g>
    <g text-rendering="geometricPrecision" stroke-miterlimit="1.45" shape-rendering="geometricPrecision" transform="matrix(1,0,0,1,152,-80)" stroke-linecap="butt">
      <path fill="none" d="M314.6571 644.7372 L491.0943 644.7372 L491.0943 694.0342 L314.6571 694.0342 Z" clip-path="url(#clipPath2)"/>
      <text x="400.9773" xml:space="preserve" y="666.8544" clip-path="url(#clipPath2)" font-family="sans-serif" stroke="none"> </text>
      <text x="320.698" xml:space="preserve" y="680.9872" clip-path="url(#clipPath2)" font-family="sans-serif" stroke="none">изменить состояние сессии</text>
    </g>
    <g text-rendering="geometricPrecision" stroke-miterlimit="1.45" shape-rendering="geometricPrecision" transform="matrix(1,0,0,1,152,-80)" stroke-linecap="butt">
      <path fill="none" d="M191 156.0259 L191 177.9972" clip-path="url(#clipPath2)"/>
    </g>
    <g text-rendering="geometricPrecision" stroke-miterlimit="1.45" shape-rendering="geometricPrecision" transform="matrix(1,0,0,1,152,-80)" stroke-linecap="butt">
      <path d="M191 185.9972 L196 173.9972 L191 176.9972 L186 173.9972 Z" stroke="none" clip-path="url(#clipPath2)"/>
      <path fill="none" d="M191 247.0269 L191 278.9777" clip-path="url(#clipPath2)"/>
      <path d="M191 286.9777 L196 274.9777 L191 277.9777 L186 274.9777 Z" clip-path="url(#clipPath2)" stroke="none"/>
      <path fill="none" d="M251.9702 317.5 L313 317.5 L313 216.5 L260.0156 216.5" clip-path="url(#clipPath2)"/>
      <path d="M252.0156 216.5 L264.0156 221.5 L261.0156 216.5 L264.0156 211.5 Z" clip-path="url(#clipPath2)" stroke="none"/>
      <text x="259" xml:space="preserve" y="292.0352" clip-path="url(#clipPath2)" font-family="sans-serif" stroke="none">НЕТ</text>
      <path fill="none" d="M191 348.0269 L191 379.9777" clip-path="url(#clipPath2)"/>
      <path d="M191 387.9777 L196 375.9777 L191 378.9777 L186 375.9777 Z" clip-path="url(#clipPath2)" stroke="none"/>
      <text x="154.9179" xml:space="preserve" y="369.9978" clip-path="url(#clipPath2)" font-family="sans-serif" stroke="none">ДА</text>
      <path fill="none" d="M191 449.0318 L191 510.426" clip-path="url(#clipPath2)"/>
      <path d="M191 518.426 L196 506.426 L191 509.426 L186 506.426 Z" clip-path="url(#clipPath2)" stroke="none"/>
      <text x="209.5449" xml:space="preserve" y="488.2376" clip-path="url(#clipPath2)" font-family="sans-serif" stroke="none">НЕТ</text>
      <path fill="none" d="M252.0297 548.9048 L313.9599 548.9048 L313.9599 216.5 L260.0049 216.5" clip-path="url(#clipPath2)"/>
      <path d="M252.0049 216.5 L264.0049 221.5 L261.0049 216.5 L264.0049 211.5 Z" clip-path="url(#clipPath2)" stroke="none"/>
      <text x="280.7524" xml:space="preserve" y="583.44" clip-path="url(#clipPath2)" font-family="sans-serif" stroke="none">НЕТ</text>
      <path fill="none" d="M404 286.9731 L404 216.5 L260.0243 216.5" clip-path="url(#clipPath2)"/>
      <path d="M252.0243 216.5 L264.0243 221.5 L261.0243 216.5 L264.0243 211.5 Z" clip-path="url(#clipPath2)" stroke="none"/>
      <path fill="none" d="M129.9848 418.5 L47.7402 418.5" clip-path="url(#clipPath2)"/>
      <path d="M39.7402 418.5 L51.7402 423.5 L48.7402 418.5 L51.7402 413.5 Z" clip-path="url(#clipPath2)" stroke="none"/>
      <text x="76.1464" xml:space="preserve" y="393.0352" clip-path="url(#clipPath2)" font-family="sans-serif" stroke="none">ДА</text>
      <path fill="none" d="M-48.5 393.8911 L-48.5 216.5 L121.9848 216.5" clip-path="url(#clipPath2)"/>
      <path d="M129.9848 216.5 L117.9848 211.5 L120.9848 216.5 L117.9848 221.5 Z" clip-path="url(#clipPath2)" stroke="none"/>
      <path fill="none" d="M191 579.4075 L191 669.3857 L306.6545 669.3857" clip-path="url(#clipPath2)"/>
      <path d="M314.6545 669.3857 L302.6545 664.3857 L305.6545 669.3857 L302.6545 674.3857 Z" clip-path="url(#clipPath2)" stroke="none"/>
      <text x="152.2871" xml:space="preserve" y="635.9636" clip-path="url(#clipPath2)" font-family="sans-serif" stroke="none">ДА</text>
      <path fill="none" d="M402.9543 644.7726 L403.877 355.982" clip-path="url(#clipPath2)"/>
      <path d="M403.9026 347.9821 L398.8643 359.966 L403.8738 356.982 L408.8642 359.998 Z" clip-path="url(#clipPath2)" stroke="none"/>
    </g>
  </g>
</svg>
